# xmcd
#
# Track frame offsets: 
#        150
#        10721
#        21378
#        31621
#        41975
#        51933
#        64648
#        75548
#        87443
#        99208
#        107891
#        117448
#        126366
#        137501
#        148778
#        160381
#        171748
#        182763
#        193833
#        204911
#        215291
#        226386
#        236203
#        249326
#
# Disc length: 3468 seconds
#
# Revision: 0
# Processed by: cddbd v1.5.2PL0 Copyright (c) Steve Scherf et al.
# Submitted via: ExactAudioCopyFreeDBPlugin 1.0
#
DISCID=550d8a18
DTITLE=Patsy Cline - Country Legend cd 2
DYEAR=1999
DGENRE=Country
TTITLE0=I Love You Honey
TTITLE1=Honky Tonk Merry Go Round
TTITLE2=Three Cigarettes In An Ashtray
TTITLE3=Walking Dream
TTITLE4=Turn The Cards Slowly
TTITLE5=Just A Closer Walk With Thee
TTITLE6=I Don't Wanna
TTITLE7=If I Could Only Stay Asleep
TTITLE8=A Poor Man's Roses
TTITLE9=Ain't No Wheels On This Ship
TTITLE10=I'm Moving Along
TTITLE11=Try Again
TTITLE12=A Stranger In My Arms
TTITLE13=Hungry For Love
TTITLE14=Let The Teardrops Fall
TTITLE15=That Wonderful Someone
TTITLE16=There He Goes
TTITLE17=Don't Ever Leave Me Again
TTITLE18=I Can't Forget You
TTITLE19=How Can I Face Tomorrow
TTITLE20=Stop The World (And Let Me Off)
TTITLE21=I'm Blue Again
TTITLE22=If I Could See The World (Through The Eyes Of A Child)
TTITLE23=I Cried All The Way To The Altar
EXTD=
EXTT0=
EXTT1=
EXTT2=
EXTT3=
EXTT4=
EXTT5=
EXTT6=
EXTT7=
EXTT8=
EXTT9=
EXTT10=
EXTT11=
EXTT12=
EXTT13=
EXTT14=
EXTT15=
EXTT16=
EXTT17=
EXTT18=
EXTT19=
EXTT20=
EXTT21=
EXTT22=
EXTT23=
PLAYORDER=
